<mxfile host="65bd71144e">
    <diagram id="-lwQtBZZ-b7CpNrlU3IZ" name="Страница 1">
        <mxGraphModel dx="1444" dy="1706" grid="1" gridSize="10" guides="1" tooltips="1" connect="1" arrows="1" fold="1" page="1" pageScale="1" pageWidth="1654" pageHeight="1169" math="0" shadow="0">
            <root>
                <mxCell id="0"/>
                <mxCell id="1" parent="0"/>
                <mxCell id="TU2mjRxlhAbS_4uC1md5-1" value="" style="endArrow=classic;html=1;rounded=0;" parent="1" edge="1">
                    <mxGeometry width="50" height="50" relative="1" as="geometry">
                        <mxPoint x="80" y="240" as="sourcePoint"/>
                        <mxPoint x="1080" y="240" as="targetPoint"/>
                    </mxGeometry>
                </mxCell>
                <mxCell id="TU2mjRxlhAbS_4uC1md5-2" value="time" style="text;html=1;strokeColor=none;fillColor=none;align=center;verticalAlign=middle;whiteSpace=wrap;rounded=0;" parent="1" vertex="1">
                    <mxGeometry x="1050" y="260" width="60" height="30" as="geometry"/>
                </mxCell>
                <mxCell id="TU2mjRxlhAbS_4uC1md5-3" value="" style="endArrow=none;html=1;rounded=0;" parent="1" edge="1">
                    <mxGeometry width="50" height="50" relative="1" as="geometry">
                        <mxPoint x="200" y="440" as="sourcePoint"/>
                        <mxPoint x="200" as="targetPoint"/>
                    </mxGeometry>
                </mxCell>
                <mxCell id="TU2mjRxlhAbS_4uC1md5-4" value="first vote:&lt;br&gt;time = t1&lt;br&gt;w = w1&lt;br&gt;speed = - w1 / t1" style="text;html=1;strokeColor=none;fillColor=none;align=center;verticalAlign=middle;whiteSpace=wrap;rounded=0;" parent="1" vertex="1">
                    <mxGeometry x="170" y="460" width="60" height="30" as="geometry"/>
                </mxCell>
                <mxCell id="TU2mjRxlhAbS_4uC1md5-5" value="w1" style="endArrow=none;html=1;rounded=0;" parent="1" edge="1">
                    <mxGeometry width="50" height="50" relative="1" as="geometry">
                        <mxPoint x="180" y="40" as="sourcePoint"/>
                        <mxPoint x="220" y="40" as="targetPoint"/>
                    </mxGeometry>
                </mxCell>
                <mxCell id="TU2mjRxlhAbS_4uC1md5-8" value="t0" style="text;html=1;strokeColor=none;fillColor=none;align=center;verticalAlign=middle;whiteSpace=wrap;rounded=0;" parent="1" vertex="1">
                    <mxGeometry x="180" y="240" width="20" height="30" as="geometry"/>
                </mxCell>
                <mxCell id="TU2mjRxlhAbS_4uC1md5-11" value="" style="endArrow=none;html=1;rounded=0;" parent="1" edge="1">
                    <mxGeometry width="50" height="50" relative="1" as="geometry">
                        <mxPoint x="400" y="440" as="sourcePoint"/>
                        <mxPoint x="400" y="-80" as="targetPoint"/>
                    </mxGeometry>
                </mxCell>
                <mxCell id="TU2mjRxlhAbS_4uC1md5-12" value="" style="endArrow=classic;html=1;rounded=0;" parent="1" edge="1">
                    <mxGeometry width="50" height="50" relative="1" as="geometry">
                        <mxPoint x="200" y="40" as="sourcePoint"/>
                        <mxPoint x="400" y="120" as="targetPoint"/>
                    </mxGeometry>
                </mxCell>
                <mxCell id="TU2mjRxlhAbS_4uC1md5-13" value="second vote:&lt;br&gt;time = t2&lt;br&gt;w = w2&lt;br&gt;addition_speed = - w2 / t2" style="text;html=1;strokeColor=none;fillColor=none;align=center;verticalAlign=middle;whiteSpace=wrap;rounded=0;" parent="1" vertex="1">
                    <mxGeometry x="370" y="460" width="60" height="30" as="geometry"/>
                </mxCell>
                <mxCell id="TU2mjRxlhAbS_4uC1md5-14" value="w1 - w1 / (t01 - t0)" style="text;html=1;strokeColor=none;fillColor=none;align=center;verticalAlign=middle;whiteSpace=wrap;rounded=0;" parent="1" vertex="1">
                    <mxGeometry x="330" y="120" width="60" height="30" as="geometry"/>
                </mxCell>
                <mxCell id="TU2mjRxlhAbS_4uC1md5-15" value="" style="endArrow=none;html=1;rounded=0;" parent="1" edge="1">
                    <mxGeometry width="50" height="50" relative="1" as="geometry">
                        <mxPoint x="370" y="-40" as="sourcePoint"/>
                        <mxPoint x="430" y="-40" as="targetPoint"/>
                    </mxGeometry>
                </mxCell>
                <mxCell id="TU2mjRxlhAbS_4uC1md5-16" value="w1 - w1 / (t01 - t0) + w2" style="text;html=1;strokeColor=none;fillColor=none;align=center;verticalAlign=middle;whiteSpace=wrap;rounded=0;" parent="1" vertex="1">
                    <mxGeometry x="340" y="-30" width="60" height="30" as="geometry"/>
                </mxCell>
                <mxCell id="TU2mjRxlhAbS_4uC1md5-17" value="t01" style="text;html=1;strokeColor=none;fillColor=none;align=center;verticalAlign=middle;whiteSpace=wrap;rounded=0;" parent="1" vertex="1">
                    <mxGeometry x="380" y="240" width="20" height="30" as="geometry"/>
                </mxCell>
                <mxCell id="TU2mjRxlhAbS_4uC1md5-18" value="" style="endArrow=classic;html=1;rounded=0;" parent="1" edge="1">
                    <mxGeometry width="50" height="50" relative="1" as="geometry">
                        <mxPoint x="400" y="-40" as="sourcePoint"/>
                        <mxPoint x="800" y="240" as="targetPoint"/>
                    </mxGeometry>
                </mxCell>
                <mxCell id="TU2mjRxlhAbS_4uC1md5-19" value="" style="endArrow=none;dashed=1;html=1;dashPattern=1 3;strokeWidth=2;rounded=0;" parent="1" edge="1">
                    <mxGeometry width="50" height="50" relative="1" as="geometry">
                        <mxPoint x="400" y="120" as="sourcePoint"/>
                        <mxPoint x="710" y="240" as="targetPoint"/>
                    </mxGeometry>
                </mxCell>
                <mxCell id="TU2mjRxlhAbS_4uC1md5-20" value="" style="endArrow=classic;html=1;rounded=0;" parent="1" edge="1">
                    <mxGeometry width="50" height="50" relative="1" as="geometry">
                        <mxPoint x="400" y="-40" as="sourcePoint"/>
                        <mxPoint x="600" y="40" as="targetPoint"/>
                    </mxGeometry>
                </mxCell>
                <mxCell id="TU2mjRxlhAbS_4uC1md5-21" value="t1" style="text;html=1;strokeColor=none;fillColor=none;align=center;verticalAlign=middle;whiteSpace=wrap;rounded=0;" parent="1" vertex="1">
                    <mxGeometry x="680" y="250" width="60" height="30" as="geometry"/>
                </mxCell>
                <mxCell id="TU2mjRxlhAbS_4uC1md5-22" value="(t1, w1)" style="text;html=1;strokeColor=none;fillColor=none;align=center;verticalAlign=middle;whiteSpace=wrap;rounded=0;" parent="1" vertex="1">
                    <mxGeometry x="680" y="300" width="60" height="30" as="geometry"/>
                </mxCell>
                <mxCell id="TU2mjRxlhAbS_4uC1md5-23" value="+ (t2, w2)" style="text;html=1;strokeColor=none;fillColor=none;align=center;verticalAlign=middle;whiteSpace=wrap;rounded=0;" parent="1" vertex="1">
                    <mxGeometry x="730" y="300" width="60" height="30" as="geometry"/>
                </mxCell>
                <mxCell id="TU2mjRxlhAbS_4uC1md5-24" value="= (t1 + t2, w1 + w2)" style="text;html=1;strokeColor=none;fillColor=none;align=center;verticalAlign=middle;whiteSpace=wrap;rounded=0;" parent="1" vertex="1">
                    <mxGeometry x="790" y="300" width="120" height="30" as="geometry"/>
                </mxCell>
                <mxCell id="TU2mjRxlhAbS_4uC1md5-25" value="-w1/t1" style="endArrow=classic;html=1;rounded=0;" parent="1" edge="1">
                    <mxGeometry width="50" height="50" relative="1" as="geometry">
                        <mxPoint x="800" y="240" as="sourcePoint"/>
                        <mxPoint x="1080" y="130" as="targetPoint"/>
                    </mxGeometry>
                </mxCell>
                <mxCell id="2" value="" style="endArrow=classic;html=1;" edge="1" parent="1">
                    <mxGeometry width="50" height="50" relative="1" as="geometry">
                        <mxPoint x="710" y="240" as="sourcePoint"/>
                        <mxPoint x="1120" y="40" as="targetPoint"/>
                    </mxGeometry>
                </mxCell>
                <mxCell id="3" value="" style="endArrow=none;dashed=1;html=1;dashPattern=1 3;strokeWidth=2;" edge="1" parent="1">
                    <mxGeometry width="50" height="50" relative="1" as="geometry">
                        <mxPoint x="200" y="40" as="sourcePoint"/>
                        <mxPoint x="1120" y="40" as="targetPoint"/>
                    </mxGeometry>
                </mxCell>
            </root>
        </mxGraphModel>
    </diagram>
</mxfile>